<svg xmlns="http://www.w3.org/2000/svg" viewBox="0 0 1100 95"><defs><style>.cls-1{fill:#FFFFFF;}.cls-2{fill:#e9b820;}</style></defs><g id="Layer_2" data-name="Layer 2"><g id="Layer_1-2" data-name="Layer 1"><path class="cls-1" d="M48,0C61.37,0,71.06,4.22,80.1,12.27a2.45,2.45,0,0,1,.13,3.7l-8.1,8.31a2.14,2.14,0,0,1-3.32,0,31.57,31.57,0,0,0-20.46-7.79c-17,0-29.62,14.12-29.62,30.75S31.48,77.72,48.48,77.72a32,32,0,0,0,20.33-7.53,2.46,2.46,0,0,1,3.32,0l8.23,8.45a2.5,2.5,0,0,1-.13,3.56A45.75,45.75,0,0,1,48,95C21.38,95,0,74,0,47.63A47.68,47.68,0,0,1,48,0Z"/><path class="cls-1" d="M105.83,90.25l41.32-88.8A2.37,2.37,0,0,1,149.4,0h1.33A2.26,2.26,0,0,1,153,1.45l40.91,88.8a2.33,2.33,0,0,1-2.26,3.43H180.09c-2,0-2.93-.79-3.86-2.64l-6.5-14.25H130L123.5,91a4,4,0,0,1-3.85,2.64H108.09A2.33,2.33,0,0,1,105.83,90.25Zm57.39-28.1-13.29-29h-.39l-13,29Z"/><path class="cls-1" d="M225.3,3.83a2.51,2.51,0,0,1,2.52-2.51H259c16.34,0,29.75,13.19,29.75,29.16a29.77,29.77,0,0,1-29.62,29.69h-16.6v31A2.61,2.61,0,0,1,240,93.68H227.82a2.51,2.51,0,0,1-2.52-2.51ZM258,44.07a13.65,13.65,0,0,0,13.68-13.72c0-7.26-6.25-12.8-13.68-12.8H242.57V44.07Z"/><path class="cls-1" d="M326,3.83a2.52,2.52,0,0,1,2.53-2.51h54.06a2.51,2.51,0,0,1,2.52,2.51V14.65a2.5,2.5,0,0,1-2.52,2.5H343.27V38.79h32.81a2.6,2.6,0,0,1,2.52,2.51v11a2.51,2.51,0,0,1-2.52,2.51H343.27V77.85h39.32a2.51,2.51,0,0,1,2.52,2.5V91.17a2.51,2.51,0,0,1-2.52,2.51H328.53A2.52,2.52,0,0,1,326,91.17Z"/><path class="cls-1" d="M428.5,80.75l4.78-8.18a3.09,3.09,0,0,1,4.52-.92c.66.39,11.42,8.18,20.06,8.18,6.9,0,12.08-4.49,12.08-10.16,0-6.73-5.71-11.35-16.87-15.84-12.48-5-25-12.93-25-28.5C428.1,13.59,436.87,0,458,0c13.55,0,23.91,6.86,26.56,8.84a3.26,3.26,0,0,1,.8,4.36l-5.05,7.52c-1.06,1.58-3.05,2.63-4.64,1.58C474.59,21.64,464.5,15,457.19,15c-7.57,0-11.69,5-11.69,9.24,0,6.2,4.92,10.42,15.68,14.78,12.88,5.14,27.76,12.79,27.76,29.82,0,13.59-11.82,26.12-30.55,26.12-16.74,0-26.57-7.78-29.22-10.29C428,83.52,427.3,82.86,428.5,80.75Z"/><path class="cls-1" d="M618.89,80.75l4.78-8.18a3.08,3.08,0,0,1,4.51-.92c.67.39,11.43,8.18,20.06,8.18,6.91,0,12.09-4.49,12.09-10.16,0-6.73-5.71-11.35-16.87-15.84-12.49-5-25-12.93-25-28.5C618.49,13.59,627.25,0,648.37,0c13.55,0,23.91,6.86,26.57,8.84a3.25,3.25,0,0,1,.8,4.35l-5,7.52c-1.06,1.59-3.05,2.64-4.65,1.59C665,21.64,654.88,15,647.58,15c-7.57,0-11.69,5-11.69,9.24,0,6.2,4.91,10.42,15.67,14.78,12.89,5.14,27.76,12.79,27.76,29.81C679.32,82.46,667.5,95,648.77,95c-16.73,0-26.56-7.78-29.22-10.29C618.36,83.52,617.69,82.86,618.89,80.75Z"/><path class="cls-1" d="M750.65,0a47.57,47.57,0,0,1,47.82,47.63C798.47,74,777.22,95,750.65,95a47.5,47.5,0,1,1,0-95Zm0,77.85A30.51,30.51,0,0,0,781.2,47.63a30.48,30.48,0,1,0-61,0A30.4,30.4,0,0,0,750.65,77.85Z"/><path class="cls-1" d="M829.16,4.49a3.13,3.13,0,0,1,3.18-3.17H844a3.22,3.22,0,0,1,3.19,3.17V40.11L880.69,2.64a3.2,3.2,0,0,1,2.53-1.32H896.5a2.81,2.81,0,0,1,2.13,4.75L864,44.86l37.19,44.2a2.89,2.89,0,0,1-2.39,4.62H884.28a2.91,2.91,0,0,1-2.39-.92L847.22,50.27V90.51A3.22,3.22,0,0,1,844,93.68H832.34a3.13,3.13,0,0,1-3.18-3.17Z"/><path class="cls-1" d="M967.83,0a47.57,47.57,0,0,1,47.82,47.63C1015.65,74,994.4,95,967.83,95a47.5,47.5,0,1,1,0-95Zm0,77.85c16.74,0,30.56-13.59,30.56-30.22a30.49,30.49,0,0,0-61,0A30.4,30.4,0,0,0,967.83,77.85Z"/><path class="cls-1" d="M1046.34,3.83a2.51,2.51,0,0,1,2.52-2.51h12.22a2.6,2.6,0,0,1,2.52,2.51v74h33.88a2.5,2.5,0,0,1,2.52,2.5V91.17a2.51,2.51,0,0,1-2.52,2.51h-48.62a2.51,2.51,0,0,1-2.52-2.51Z"/><ellipse class="cls-2" cx="553.6" cy="47.5" rx="16.51" ry="16.4"/></g></g></svg>